<mxfile host="Electron" modified="2023-12-21T15:59:46.655Z" agent="Mozilla/5.0 (Windows NT 10.0; Win64; x64) AppleWebKit/537.36 (KHTML, like Gecko) draw.io/22.1.2 Chrome/114.0.5735.289 Electron/25.9.4 Safari/537.36" etag="D_OUb7ixeJeSzQKLuSE-" version="22.1.2" type="device">
  <diagram name="Page-1" id="eA_269fhGGT-t8miq8zX">
    <mxGraphModel dx="1593" dy="1020" grid="1" gridSize="10" guides="1" tooltips="1" connect="1" arrows="1" fold="1" page="1" pageScale="1" pageWidth="583" pageHeight="827" math="0" shadow="0">
      <root>
        <mxCell id="0" />
        <mxCell id="1" parent="0" />
        <mxCell id="Auf5hDId399ElGIntK5k-1" value="" style="ellipse;whiteSpace=wrap;html=1;aspect=fixed;fillColor=#000000;" vertex="1" parent="1">
          <mxGeometry x="290" y="20" width="20" height="20" as="geometry" />
        </mxCell>
        <mxCell id="Auf5hDId399ElGIntK5k-2" value="" style="endArrow=open;html=1;rounded=0;endFill=0;exitX=0.5;exitY=1;exitDx=0;exitDy=0;entryX=0.5;entryY=0;entryDx=0;entryDy=0;entryPerimeter=0;" edge="1" parent="1" source="Auf5hDId399ElGIntK5k-1" target="Auf5hDId399ElGIntK5k-3">
          <mxGeometry width="50" height="50" relative="1" as="geometry">
            <mxPoint x="130" y="120" as="sourcePoint" />
            <mxPoint x="300" y="70" as="targetPoint" />
          </mxGeometry>
        </mxCell>
        <mxCell id="Auf5hDId399ElGIntK5k-3" value="" style="strokeWidth=2;html=1;shape=mxgraph.flowchart.decision;whiteSpace=wrap;" vertex="1" parent="1">
          <mxGeometry x="288.75" y="70" width="22.5" height="30" as="geometry" />
        </mxCell>
        <mxCell id="Auf5hDId399ElGIntK5k-4" value="&lt;font style=&quot;font-size: 10px;&quot;&gt;Retirer commandes&lt;br&gt;abandonnées &lt;font style=&quot;font-size: 10px;&quot; color=&quot;#00cc00&quot;&gt;et pains périmés&lt;/font&gt;&lt;/font&gt;" style="strokeWidth=2;html=1;shape=mxgraph.flowchart.terminator;whiteSpace=wrap;" vertex="1" parent="1">
          <mxGeometry x="178.75" y="120" width="110" height="50" as="geometry" />
        </mxCell>
        <mxCell id="Auf5hDId399ElGIntK5k-5" value="" style="endArrow=open;html=1;rounded=0;endFill=0;exitX=0;exitY=0.5;exitDx=0;exitDy=0;entryX=0.5;entryY=0;entryDx=0;entryDy=0;entryPerimeter=0;exitPerimeter=0;" edge="1" parent="1" source="Auf5hDId399ElGIntK5k-3" target="Auf5hDId399ElGIntK5k-4">
          <mxGeometry width="50" height="50" relative="1" as="geometry">
            <mxPoint x="310" y="10" as="sourcePoint" />
            <mxPoint x="310" y="80" as="targetPoint" />
            <Array as="points">
              <mxPoint x="234" y="85" />
            </Array>
          </mxGeometry>
        </mxCell>
        <mxCell id="Auf5hDId399ElGIntK5k-6" value="[ si des commandes&lt;br&gt;n&#39;ont pas été retirées&lt;br&gt;dans les 12h ]" style="text;html=1;align=center;verticalAlign=middle;resizable=0;points=[];autosize=1;strokeColor=none;fillColor=none;" vertex="1" parent="1">
          <mxGeometry x="100" y="55" width="140" height="60" as="geometry" />
        </mxCell>
        <mxCell id="Auf5hDId399ElGIntK5k-7" value="" style="endArrow=open;html=1;rounded=0;endFill=0;exitX=1;exitY=0.5;exitDx=0;exitDy=0;exitPerimeter=0;entryX=1;entryY=0.5;entryDx=0;entryDy=0;entryPerimeter=0;" edge="1" parent="1" source="Auf5hDId399ElGIntK5k-3" target="Auf5hDId399ElGIntK5k-8">
          <mxGeometry width="50" height="50" relative="1" as="geometry">
            <mxPoint x="299" y="95" as="sourcePoint" />
            <mxPoint x="430" y="240" as="targetPoint" />
            <Array as="points">
              <mxPoint x="360" y="85" />
              <mxPoint x="360" y="205" />
            </Array>
          </mxGeometry>
        </mxCell>
        <mxCell id="Auf5hDId399ElGIntK5k-8" value="" style="strokeWidth=2;html=1;shape=mxgraph.flowchart.decision;whiteSpace=wrap;" vertex="1" parent="1">
          <mxGeometry x="288.75" y="190" width="22.5" height="30" as="geometry" />
        </mxCell>
        <mxCell id="Auf5hDId399ElGIntK5k-9" value="" style="endArrow=open;html=1;rounded=0;endFill=0;exitX=0.5;exitY=1;exitDx=0;exitDy=0;entryX=0;entryY=0.5;entryDx=0;entryDy=0;entryPerimeter=0;exitPerimeter=0;" edge="1" parent="1" source="Auf5hDId399ElGIntK5k-4" target="Auf5hDId399ElGIntK5k-8">
          <mxGeometry width="50" height="50" relative="1" as="geometry">
            <mxPoint x="299" y="95" as="sourcePoint" />
            <mxPoint x="230" y="150" as="targetPoint" />
            <Array as="points">
              <mxPoint x="234" y="205" />
            </Array>
          </mxGeometry>
        </mxCell>
        <mxCell id="Auf5hDId399ElGIntK5k-10" value="" style="endArrow=open;html=1;rounded=0;endFill=0;exitX=0.5;exitY=1;exitDx=0;exitDy=0;exitPerimeter=0;entryX=0.5;entryY=0;entryDx=0;entryDy=0;entryPerimeter=0;" edge="1" parent="1" source="Auf5hDId399ElGIntK5k-8" target="Auf5hDId399ElGIntK5k-11">
          <mxGeometry width="50" height="50" relative="1" as="geometry">
            <mxPoint x="299" y="95" as="sourcePoint" />
            <mxPoint x="301" y="330" as="targetPoint" />
          </mxGeometry>
        </mxCell>
        <mxCell id="Auf5hDId399ElGIntK5k-11" value="" style="strokeWidth=2;html=1;shape=mxgraph.flowchart.decision;whiteSpace=wrap;" vertex="1" parent="1">
          <mxGeometry x="288.75" y="250" width="22.5" height="30" as="geometry" />
        </mxCell>
        <mxCell id="Auf5hDId399ElGIntK5k-12" value="&lt;font style=&quot;font-size: 10px;&quot;&gt;Indiquer&lt;br&gt;emplacement&lt;/font&gt;" style="strokeWidth=2;html=1;shape=mxgraph.flowchart.terminator;whiteSpace=wrap;" vertex="1" parent="1">
          <mxGeometry x="245" y="300" width="110" height="50" as="geometry" />
        </mxCell>
        <mxCell id="Auf5hDId399ElGIntK5k-13" value="&lt;font style=&quot;font-size: 10px;&quot;&gt;Rassembler&lt;br&gt;composantes&lt;/font&gt;" style="strokeWidth=2;html=1;shape=mxgraph.flowchart.terminator;whiteSpace=wrap;" vertex="1" parent="1">
          <mxGeometry x="245" y="380" width="110" height="50" as="geometry" />
        </mxCell>
        <mxCell id="Auf5hDId399ElGIntK5k-14" value="&lt;font style=&quot;font-size: 10px;&quot;&gt;Disposer&lt;br&gt;commande&lt;/font&gt;" style="strokeWidth=2;html=1;shape=mxgraph.flowchart.terminator;whiteSpace=wrap;" vertex="1" parent="1">
          <mxGeometry x="245" y="464.5" width="110" height="50" as="geometry" />
        </mxCell>
        <mxCell id="Auf5hDId399ElGIntK5k-15" value="" style="endArrow=open;html=1;rounded=0;endFill=0;exitX=0.5;exitY=1;exitDx=0;exitDy=0;exitPerimeter=0;entryX=0.5;entryY=0;entryDx=0;entryDy=0;entryPerimeter=0;" edge="1" parent="1" source="Auf5hDId399ElGIntK5k-11" target="Auf5hDId399ElGIntK5k-12">
          <mxGeometry width="50" height="50" relative="1" as="geometry">
            <mxPoint x="310" y="230" as="sourcePoint" />
            <mxPoint x="310" y="260" as="targetPoint" />
          </mxGeometry>
        </mxCell>
        <mxCell id="Auf5hDId399ElGIntK5k-16" value="" style="endArrow=open;html=1;rounded=0;endFill=0;exitX=0.5;exitY=1;exitDx=0;exitDy=0;exitPerimeter=0;entryX=0.5;entryY=0;entryDx=0;entryDy=0;entryPerimeter=0;" edge="1" parent="1" source="Auf5hDId399ElGIntK5k-12" target="Auf5hDId399ElGIntK5k-13">
          <mxGeometry width="50" height="50" relative="1" as="geometry">
            <mxPoint x="310" y="290" as="sourcePoint" />
            <mxPoint x="310" y="310" as="targetPoint" />
          </mxGeometry>
        </mxCell>
        <mxCell id="Auf5hDId399ElGIntK5k-17" value="" style="endArrow=open;html=1;rounded=0;endFill=0;exitX=0.5;exitY=1;exitDx=0;exitDy=0;exitPerimeter=0;entryX=0.5;entryY=0;entryDx=0;entryDy=0;entryPerimeter=0;" edge="1" parent="1" source="Auf5hDId399ElGIntK5k-13" target="Auf5hDId399ElGIntK5k-14">
          <mxGeometry width="50" height="50" relative="1" as="geometry">
            <mxPoint x="310" y="360" as="sourcePoint" />
            <mxPoint x="310" y="390" as="targetPoint" />
          </mxGeometry>
        </mxCell>
        <mxCell id="Auf5hDId399ElGIntK5k-18" value="" style="endArrow=open;html=1;rounded=0;endFill=0;entryX=0;entryY=0.5;entryDx=0;entryDy=0;entryPerimeter=0;exitX=0.5;exitY=1;exitDx=0;exitDy=0;exitPerimeter=0;" edge="1" parent="1" source="Auf5hDId399ElGIntK5k-14" target="Auf5hDId399ElGIntK5k-11">
          <mxGeometry width="50" height="50" relative="1" as="geometry">
            <mxPoint x="280" y="560" as="sourcePoint" />
            <mxPoint x="70" y="420" as="targetPoint" />
            <Array as="points">
              <mxPoint x="300" y="540" />
              <mxPoint x="210" y="540" />
              <mxPoint x="210" y="265" />
            </Array>
          </mxGeometry>
        </mxCell>
        <mxCell id="Auf5hDId399ElGIntK5k-19" value="[ il reste encore&lt;br&gt;une / des&lt;br&gt;commandes ]" style="text;html=1;align=center;verticalAlign=middle;resizable=0;points=[];autosize=1;strokeColor=none;fillColor=none;" vertex="1" parent="1">
          <mxGeometry x="100" y="260" width="110" height="60" as="geometry" />
        </mxCell>
        <mxCell id="Auf5hDId399ElGIntK5k-20" value="" style="endArrow=open;html=1;rounded=0;endFill=0;exitX=1;exitY=0.5;exitDx=0;exitDy=0;exitPerimeter=0;entryX=0.5;entryY=0;entryDx=0;entryDy=0;entryPerimeter=0;" edge="1" parent="1" source="Auf5hDId399ElGIntK5k-11" target="Auf5hDId399ElGIntK5k-21">
          <mxGeometry width="50" height="50" relative="1" as="geometry">
            <mxPoint x="310" y="525" as="sourcePoint" />
            <mxPoint x="300" y="660" as="targetPoint" />
            <Array as="points">
              <mxPoint x="380" y="265" />
              <mxPoint x="380" y="570" />
              <mxPoint x="300" y="570" />
            </Array>
          </mxGeometry>
        </mxCell>
        <mxCell id="Auf5hDId399ElGIntK5k-21" value="" style="strokeWidth=2;html=1;shape=mxgraph.flowchart.decision;whiteSpace=wrap;" vertex="1" parent="1">
          <mxGeometry x="288.5" y="600" width="22.5" height="30" as="geometry" />
        </mxCell>
        <mxCell id="Auf5hDId399ElGIntK5k-22" value="" style="endArrow=open;html=1;rounded=0;endFill=0;exitX=1;exitY=0.5;exitDx=0;exitDy=0;exitPerimeter=0;entryX=0.5;entryY=0;entryDx=0;entryDy=0;entryPerimeter=0;" edge="1" parent="1" source="Auf5hDId399ElGIntK5k-21" target="Auf5hDId399ElGIntK5k-23">
          <mxGeometry width="50" height="50" relative="1" as="geometry">
            <mxPoint x="310" y="440" as="sourcePoint" />
            <mxPoint x="340" y="650" as="targetPoint" />
            <Array as="points">
              <mxPoint x="365" y="615" />
            </Array>
          </mxGeometry>
        </mxCell>
        <mxCell id="Auf5hDId399ElGIntK5k-23" value="&lt;font style=&quot;font-size: 10px;&quot;&gt;Disposer&lt;br&gt;commande&lt;/font&gt;" style="strokeWidth=2;html=1;shape=mxgraph.flowchart.terminator;whiteSpace=wrap;" vertex="1" parent="1">
          <mxGeometry x="310" y="650" width="110" height="50" as="geometry" />
        </mxCell>
        <mxCell id="Auf5hDId399ElGIntK5k-24" value="" style="endArrow=open;html=1;rounded=0;endFill=0;exitX=0;exitY=0.5;exitDx=0;exitDy=0;exitPerimeter=0;entryX=0;entryY=0.5;entryDx=0;entryDy=0;entryPerimeter=0;" edge="1" parent="1" source="Auf5hDId399ElGIntK5k-21" target="Auf5hDId399ElGIntK5k-25">
          <mxGeometry width="50" height="50" relative="1" as="geometry">
            <mxPoint x="321" y="625" as="sourcePoint" />
            <mxPoint x="220" y="690" as="targetPoint" />
            <Array as="points">
              <mxPoint x="260" y="615" />
              <mxPoint x="260" y="735" />
            </Array>
          </mxGeometry>
        </mxCell>
        <mxCell id="Auf5hDId399ElGIntK5k-25" value="" style="strokeWidth=2;html=1;shape=mxgraph.flowchart.decision;whiteSpace=wrap;" vertex="1" parent="1">
          <mxGeometry x="288.5" y="720" width="22.5" height="30" as="geometry" />
        </mxCell>
        <mxCell id="Auf5hDId399ElGIntK5k-26" value="" style="endArrow=open;html=1;rounded=0;endFill=0;exitX=0.5;exitY=1;exitDx=0;exitDy=0;exitPerimeter=0;entryX=1;entryY=0.5;entryDx=0;entryDy=0;entryPerimeter=0;" edge="1" parent="1" source="Auf5hDId399ElGIntK5k-23" target="Auf5hDId399ElGIntK5k-25">
          <mxGeometry width="50" height="50" relative="1" as="geometry">
            <mxPoint x="321" y="625" as="sourcePoint" />
            <mxPoint x="385" y="660" as="targetPoint" />
            <Array as="points">
              <mxPoint x="365" y="735" />
            </Array>
          </mxGeometry>
        </mxCell>
        <mxCell id="Auf5hDId399ElGIntK5k-27" value="" style="ellipse;whiteSpace=wrap;html=1;aspect=fixed;fillColor=#000000;" vertex="1" parent="1">
          <mxGeometry x="290" y="780" width="20" height="20" as="geometry" />
        </mxCell>
        <mxCell id="Auf5hDId399ElGIntK5k-28" value="" style="endArrow=open;html=1;rounded=0;endFill=0;exitX=0.5;exitY=1;exitDx=0;exitDy=0;exitPerimeter=0;entryX=0.5;entryY=0;entryDx=0;entryDy=0;" edge="1" parent="1" source="Auf5hDId399ElGIntK5k-25" target="Auf5hDId399ElGIntK5k-29">
          <mxGeometry width="50" height="50" relative="1" as="geometry">
            <mxPoint x="321" y="625" as="sourcePoint" />
            <mxPoint x="430" y="770" as="targetPoint" />
            <Array as="points" />
          </mxGeometry>
        </mxCell>
        <mxCell id="Auf5hDId399ElGIntK5k-29" value="" style="ellipse;whiteSpace=wrap;html=1;aspect=fixed;fillColor=none;" vertex="1" parent="1">
          <mxGeometry x="285" y="775" width="30" height="30" as="geometry" />
        </mxCell>
        <mxCell id="Auf5hDId399ElGIntK5k-30" value="[ emplacements&lt;br&gt;disponibles et&lt;br&gt;pains à placer ]" style="text;html=1;align=center;verticalAlign=middle;resizable=0;points=[];autosize=1;strokeColor=none;fillColor=none;" vertex="1" parent="1">
          <mxGeometry x="360" y="590" width="110" height="60" as="geometry" />
        </mxCell>
        <mxCell id="Auf5hDId399ElGIntK5k-31" value="&lt;font color=&quot;#00cc00&quot;&gt;[ il ne reste pas&lt;br&gt;de commdandes ]&lt;/font&gt;" style="text;html=1;align=center;verticalAlign=middle;resizable=0;points=[];autosize=1;strokeColor=none;fillColor=none;" vertex="1" parent="1">
          <mxGeometry x="360" y="65" width="120" height="40" as="geometry" />
        </mxCell>
      </root>
    </mxGraphModel>
  </diagram>
</mxfile>
